# xmcd
#
# Track frame offsets:
#	150
#	20145
#	38675
#	53335
#	72245
#	88620
#	107507
#	134672
#	154627
#	174927
#	190550
#	208640
#	231815
#	254782
#
# Disc length: 3743 seconds
#
# Revision: 0
# Processed by: cddbd v1.5.2PL0 Copyright (c) Steve Scherf et al.
# Submitted via: dBpowerAMP V4.0
#
DISCID=b60e9d0e
DTITLE=Tom Laverack - Gift Horse
DYEAR=2005
DGENRE=Country
TTITLE0=Smile on You
TTITLE1=Hold Out
TTITLE2=Crossin' Kansas
TTITLE3=Flashing Blue
TTITLE4=I'm Broken
TTITLE5=If I Turned My Back on You
TTITLE6=Bodiless
TTITLE7=Killing Time
TTITLE8=Five O'Clock Shadow
TTITLE9=A Thousand Deaths
TTITLE10=Where Are You?
TTITLE11=Ragdoll
TTITLE12=Wallet
TTITLE13=Hot Dog Vendor
EXTD=
EXTT0=
EXTT1=
EXTT2=
EXTT3=
EXTT4=
EXTT5=
EXTT6=
EXTT7=
EXTT8=
EXTT9=
EXTT10=
EXTT11=
EXTT12=
EXTT13=
PLAYORDER=
